<?xml version="1.0" encoding="UTF-8" standalone="no"?>
<svg
   xmlns:dc="http://purl.org/dc/elements/1.1/"
   xmlns:cc="http://creativecommons.org/ns#"
   xmlns:rdf="http://www.w3.org/1999/02/22-rdf-syntax-ns#"
   xmlns:svg="http://www.w3.org/2000/svg"
   xmlns="http://www.w3.org/2000/svg"
   viewBox="0 0 601.33331 104"
   height="104"
   width="601.33331"
   xml:space="preserve"
   id="svg2"
   version="1.1"><metadata
     id="metadata8"><rdf:RDF><cc:Work
         rdf:about=""><dc:format>image/svg+xml</dc:format><dc:type
           rdf:resource="http://purl.org/dc/dcmitype/StillImage" /></cc:Work></rdf:RDF></metadata><defs
     id="defs6" /><g
     transform="matrix(1.3333333,0,0,-1.3333333,0,104)"
     id="g10"><g
       transform="scale(0.1)"
       id="g12"><path
         id="path14"
         style="fill:#e6e6e6;fill-opacity:1;fill-rule:evenodd;stroke:none"
         d="M 960,52.8086 C 959.449,45.8594 946.949,39.3398 922.422,33.1992 897.578,27.1094 863.359,21.7617 819.609,17.2305 775.59,12.4219 724.648,8.82813 666.801,6.41016 608.949,3.75 546.641,2.42188 480,2.42188 413.359,2.42188 351.051,3.75 293.199,6.41016 235.352,8.82813 184.41,12.4219 140.391,17.2305 96.6406,21.7617 62.4219,27.1094 37.5781,33.1992 13.0508,39.3398 0.550781,45.8594 0,52.8086 0.550781,60 13.0508,66.5195 37.5781,72.4219 c 24.8438,6.0976 59.0625,11.5586 102.8129,16.4062 44.019,4.5313 94.961,8.1211 152.808,10.7813 57.852,2.6606 120.16,4.0196 186.801,4.0196 66.641,0 128.949,-1.359 186.801,-4.0196 57.847,-2.6602 108.789,-6.25 152.808,-10.7813 43.75,-4.5273 77.969,-9.8789 102.813,-16.0195 C 946.949,66.6797 959.449,60 960,52.8086" /><path
         id="path16"
         style="fill:#00abdc;fill-opacity:1;fill-rule:evenodd;stroke:none"
         d="m 569.609,676.41 c 9.571,0 19.571,-2.43 30,-7.191 13.871,-6.68 24.102,-17.34 30.782,-31.989 l 13.199,-29.609 c 3.988,-8.793 10.121,-17.07 18.398,-24.812 8.012,-7.731 17.461,-14.289 28.403,-19.61 13.91,-6.679 27.5,-10 40.781,-10 7.226,0 14.297,0.942 21.25,2.821 l 31.988,7.96 c 4.77,1.372 9.731,2.04 14.77,2.04 10.16,0 20.82,-2.661 31.992,-8.008 16.558,-7.742 28.558,-18.793 36.019,-33.211 l 16.789,-31.602 c 8.29,-15.187 9.891,-30.269 4.848,-45.187 -5.348,-15.473 -15.629,-25.473 -30.816,-30 L 824.41,407.621 c -21.051,-6.68 -35.461,-20.391 -43.238,-41.211 -9.063,-23.48 -8.242,-47.191 2.418,-71.18 l 18.012,-40 c 8.007,-17.89 9.726,-36.949 5.199,-57.218 -7.973,-17.621 -20.512,-31.211 -37.621,-40.782 L 730,141.988 c -8.828,-2.109 -17.34,-3.16 -25.59,-3.16 -11.988,0 -24.019,2.383 -36.012,7.192 -19.218,12.261 -32.378,28.121 -39.57,47.609 l -16.019,43.172 c -7.731,21.09 -7.887,40 -0.387,56.828 8.519,18.641 22.5,30.902 41.988,36.762 l 37.578,12.031 c 22.934,7.187 38.672,21.449 47.192,42.808 8.011,20.79 6.949,42.5 -3.16,65.161 l -15.629,33.589 c -9.84,21.879 -25.469,37.899 -46.801,48.008 -14.141,6.684 -28.121,10 -41.988,10 -7.192,0.282 -14.532,-0.66 -21.993,-2.769 l -35.629,-8.828 c -6.64,-1.563 -13.16,-2.379 -19.57,-2.379 -11.211,0 -22.422,2.808 -33.59,8.398 -15.23,7.219 -25.898,18.942 -31.992,35.231 l -11.637,31.558 c -5.589,15.473 -4.652,29.071 2.809,40.781 7.461,11.758 18.121,18.95 31.988,21.641 2.422,0.551 4.653,0.899 6.84,1.18 l 34.371,6.828 c 2.391,0.781 4.379,1.293 5.981,1.601 3.48,0.79 6.949,1.18 10.429,1.18" /><path
         id="path18"
         style="fill:#003f66;fill-opacity:1;fill-rule:evenodd;stroke:none"
         d="m 393.98,635.621 c 10.161,0 20.43,-2.531 30.821,-7.609 14.648,-6.922 24.808,-18.242 30.398,-34.032 l 11.211,-31.558 c 8,-21.332 22.77,-37.5 44.41,-48.442 13.828,-6.871 28.008,-10.351 42.379,-10.351 8.52,0.242 17.352,1.449 26.41,3.601 l 35.59,9.18 c 5.621,1.32 11.211,1.988 16.789,1.988 10.942,0.274 21.992,-2.378 33.211,-8.007 17.34,-8.243 29.449,-20.231 36.403,-35.981 l 15.199,-34.019 c 7.5,-16.25 7.73,-32.5 0.777,-48.75 -7.187,-16.84 -19.297,-27.891 -36.406,-33.243 L 643.59,346.801 c -25.309,-7.461 -43.32,-22.821 -53.981,-45.981 -5.629,-11.992 -8.558,-24.3 -8.789,-36.84 -0.269,-12.769 2.11,-26.25 7.192,-40.351 L 603.59,180 c 6.961,-19.449 6.961,-40.391 0,-62.77 -13.039,-20.8198 -29.059,-36.4097 -48,-46.8394 L 510.82,53.1992 C 502.27,51.0898 493.711,50 485.199,50 c -13.597,0 -26.801,2.6992 -39.609,8.0117 -21.289,10.9375 -35.039,27.8477 -41.18,50.8163 l -12.808,47.582 c -6.68,23.981 -4.024,45.07 8.007,63.199 11.442,20.782 27.34,34.262 47.582,40.391 l 42.418,13.629 c 27.731,8.793 47.192,24.769 58.403,48.012 5.859,11.988 9.328,24.097 10.386,36.371 0.782,12.539 -0.82,24.41 -4.808,35.617 L 540,430 c -8.012,21.879 -24.141,38.828 -48.398,50.82 -14.141,6.91 -28.672,10.391 -43.59,10.391 -9.063,0 -18.403,-1.211 -28.012,-3.59 l -40,-10 c -6.41,-1.601 -12.809,-2.391 -19.18,-2.391 -11.992,0 -24.019,2.93 -36.019,8.75 -17.34,6.961 -28.391,19.5 -33.199,37.661 l -9.614,33.98 c -4.527,17.309 -1.328,32 9.614,43.988 9.878,13.09 21.878,20.942 35.976,23.59 2.422,0.551 4.692,0.942 6.832,1.211 l 38.399,8.012 c 2.66,0.777 5.203,1.328 7.582,1.558 4.531,1.098 9.058,1.641 13.589,1.641" /><path
         id="path20"
         style="fill:#94ba33;fill-opacity:1;fill-rule:evenodd;stroke:none"
         d="m 339.609,780 c 10.661,0 22.379,-1.988 35.192,-6.02 14.929,-9.839 24.258,-20.351 28.008,-31.558 l 10,-27.621 c 4.531,-12.531 3.211,-25.352 -3.981,-38.391 -11.25,-13.051 -25.117,-21.18 -41.637,-24.422 L 330,644.41 C 304.922,639.34 285.59,628.16 271.988,610.82 258.121,593.199 254.141,573.359 260,551.211 l 9.18,-34.41 c 5.621,-21.571 19.769,-38.129 42.422,-49.571 14.918,-7.23 31.757,-10.82 50.386,-10.82 8.012,0 16.133,0.539 24.422,1.602 l 40.391,10.386 c 2.929,1.051 5.469,1.872 7.609,2.422 4.77,1.328 9.731,1.989 14.77,1.989 10.16,0 21.48,-2.539 34.019,-7.579 16.25,-9.878 27.352,-22.96 33.211,-39.21 l 13.199,-36.801 c 6.911,-19.219 6.411,-36.68 -1.597,-52.418 -11.723,-19.18 -27.071,-31.723 -46.024,-37.582 L 440,286.41 c -8.012,-2.66 -15.699,-3.871 -23.199,-3.601 -12.27,-0.27 -24.379,2.812 -36.41,9.179 -16.801,10.711 -29.34,25.352 -37.582,44.032 l -10.387,39.21 c -6.723,23.989 -21.602,41.719 -44.844,53.168 -16.527,8.551 -33.277,12.813 -50.387,12.813 -9.07,0 -18.363,-1.211 -28.011,-3.59 L 164.801,426.41 c -8,-1.879 -15.973,-2.781 -23.981,-2.781 -11.992,0 -23.871,2.23 -35.621,6.762 -17.0779,10.937 -27.0779,24.839 -29.9998,41.597 l -6.3711,36.84 c -2.9687,18.121 1.4414,33.981 13.1602,47.582 13.0898,15.469 29.6137,25.231 49.6137,29.211 l 41.988,8.359 c 27.23,5.629 47.738,17.231 61.609,34.848 13.629,17.344 17.731,35.703 12.379,55.152 l -7.969,29.649 c -3.48,12.781 -0.16,25.98 10,39.57 10.942,10.672 24.532,17.352 40.782,20 l 35.199,5.629 c 4.531,0.781 9.211,1.172 14.019,1.172" /><path
         id="path22"
         style="fill:#004166;fill-opacity:1;fill-rule:nonzero;stroke:none"
         d="M 1076.41,438.828 V 726.02 h 38.75 V 438.828 Z m 100.47,0 v 209.063 h 33.43 v -30.942 l 7.81,10.321 c 15.2,17.89 34.26,26.871 57.19,26.871 23.13,0 40.94,-6.25 53.44,-18.75 12.5,-12.5 18.75,-30.313 18.75,-53.442 V 438.828 h -35.16 v 131.25 c 0,18.32 -3.59,31.563 -10.78,39.692 -7.11,8.199 -18.55,12.339 -34.37,12.339 -16.99,0 -30.43,-6.488 -40.31,-19.379 -9.93,-12.808 -14.85,-30.152 -14.85,-52.031 V 438.828 Z" /><path
         id="path24"
         style="fill:#004166;fill-opacity:1;fill-rule:nonzero;stroke:none"
         d="m 1399.53,438.828 v 209.063 h 33.44 v -31.09 l 7.19,9.371 c 15.82,18.629 34.68,27.969 56.56,27.969 18.75,0 33.63,-5.59 44.69,-16.719 4.88,-4.922 8.75,-10.543 11.56,-16.871 l 5.62,7.179 c 15.08,17.579 33.13,26.411 54.07,26.411 21.87,0 38.75,-6.02 50.62,-17.969 11.95,-11.871 17.97,-28.75 17.97,-50.621 V 438.828 h -35.16 v 134.844 c 0,15.816 -3.28,27.848 -9.84,36.098 -6.48,8.199 -15.94,12.339 -28.44,12.339 -15.23,0 -27.34,-5.937 -36.4,-17.808 -8.99,-11.879 -13.44,-27.93 -13.44,-48.129 V 438.828 h -35.16 v 143.121 c 0,13.012 -2.97,22.973 -8.9,29.852 -5.94,6.871 -14.53,10.308 -25.79,10.308 -15.62,0 -28.43,-6.679 -38.43,-20 -10,-13.238 -15,-30.39 -15,-51.41 V 438.828 Z" /><path
         id="path26"
         style="fill:#004166;fill-opacity:1;fill-rule:nonzero;stroke:none"
         d="m 1769.53,647.891 v -134.84 c 0,-17.621 3.36,-30.281 10.16,-37.973 6.76,-7.738 17.73,-11.558 32.97,-11.558 16.95,0 30.39,6.48 40.31,19.531 9.88,13.121 14.84,30.859 14.84,53.277 v 111.563 h 35.16 V 438.828 h -33.44 v 31.871 c -2.42,-3.75 -5,-7.34 -7.81,-10.777 -15,-17.813 -33.75,-26.723 -56.25,-26.723 -23.75,0 -41.56,5.86 -53.44,17.66 -11.8,11.871 -17.65,29.692 -17.65,53.442 v 143.59 z" /><path
         id="path28"
         style="fill:#004166;fill-opacity:1;fill-rule:nonzero;stroke:none"
         d="m 1955.78,438.828 v 209.063 h 33.44 v -30.942 l 7.81,10.321 c 15.2,17.89 34.26,26.871 57.19,26.871 23.12,0 40.94,-6.25 53.44,-18.75 12.5,-12.5 18.75,-30.313 18.75,-53.442 V 438.828 h -35.16 v 131.25 c 0,18.32 -3.59,31.563 -10.78,39.692 -7.11,8.199 -18.56,12.339 -34.38,12.339 -16.99,0 -30.43,-6.488 -40.31,-19.379 -9.92,-12.808 -14.84,-30.152 -14.84,-52.031 V 438.828 Z" /><path
         id="path30"
         style="fill:#004166;fill-opacity:1;fill-rule:nonzero;stroke:none"
         d="m 2263.59,433.199 c -28.86,0 -52.26,10.16 -70.15,30.473 -17.93,20.308 -26.88,46.918 -26.88,79.848 0,33.121 8.95,59.839 26.88,80.152 17.89,20.308 41.29,30.469 70.15,30.469 29.14,0 52.66,-10.161 70.47,-30.469 17.89,-20.313 26.88,-47.031 26.88,-80.152 0,-32.93 -8.99,-59.54 -26.88,-79.848 -17.81,-20.313 -41.33,-30.473 -70.47,-30.473 z m 0,30.321 c 18.52,0 33.29,7.179 44.22,21.558 10.94,14.453 16.41,33.942 16.41,58.442 0,24.449 -5.47,43.941 -16.41,58.429 -10.93,14.571 -25.7,21.879 -44.22,21.879 -18.43,0 -33.12,-7.308 -44.06,-21.879 -10.86,-14.488 -16.25,-33.98 -16.25,-58.429 0,-24.5 5.39,-43.989 16.25,-58.442 10.94,-14.379 25.63,-21.558 44.06,-21.558 z" /><path
         id="path32"
         style="fill:#004166;fill-opacity:1;fill-rule:nonzero;stroke:none"
         d="m 2565.94,513.98 c -3.67,-26.25 -12.97,-46.32 -27.97,-60.152 -14.92,-13.75 -34.81,-20.629 -59.69,-20.629 -27.73,0 -49.84,9.922 -66.4,29.852 -16.57,19.879 -24.85,46.719 -24.85,80.469 0,33.75 8.52,60.621 25.63,80.621 17.18,20 40.23,30 69.22,30 25.07,0 45.07,-6.871 60,-20.621 15,-13.75 23,-32.661 24.06,-56.719 h -33.75 c -1.49,14.879 -6.68,26.437 -15.63,34.679 -8.98,8.211 -20.94,12.348 -35.94,12.348 -17.73,0 -31.64,-7.148 -41.71,-21.406 -10.12,-14.301 -15.16,-33.902 -15.16,-58.902 0,-26.571 4.69,-46.571 14.06,-60 9.38,-13.36 23.32,-20 41.88,-20 13.63,0 25.04,4.371 34.22,13.121 9.14,8.75 15.23,21.168 18.28,37.339 z" /><path
         id="path34"
         style="fill:#004166;fill-opacity:1;fill-rule:nonzero;stroke:none"
         d="m 2686.25,433.199 c -29.49,0 -52.73,9.379 -69.69,28.129 -16.87,18.75 -25.31,44.613 -25.31,77.652 0,35.2 8.91,63.168 26.72,83.911 17.89,20.82 41.95,31.25 72.19,31.25 27.38,0 49.45,-10.161 66.25,-30.469 16.75,-20.313 25.15,-47.031 25.15,-80.152 l -0.31,-12.5 h -152.81 c 1.44,-20.86 6.25,-36.719 14.37,-47.661 9.89,-13.238 25.51,-19.839 46.88,-19.839 13.32,0 25,3.75 35,11.25 10.08,7.57 16.25,17.218 18.43,28.902 h 34.85 c -5.24,-22.934 -15.63,-40.434 -31.25,-52.5 -15.63,-11.992 -35.78,-17.973 -60.47,-17.973 z m 58.59,126.102 c -1.05,19.449 -5.86,34.57 -14.37,45.308 -9.49,11.95 -23.44,17.969 -41.88,17.969 -18.43,0 -33.2,-6.879 -44.21,-20.629 -8.76,-10.859 -14.07,-25.07 -15.94,-42.648 z" /><path
         id="path36"
         style="fill:#004166;fill-opacity:1;fill-rule:nonzero;stroke:none"
         d="m 2823.75,438.828 v 209.063 h 33.44 v -30.942 l 7.81,10.321 c 15.2,17.89 34.26,26.871 57.19,26.871 23.12,0 40.93,-6.25 53.43,-18.75 12.5,-12.5 18.76,-30.313 18.76,-53.442 V 438.828 h -35.16 v 131.25 c 0,18.32 -3.6,31.563 -10.78,39.692 -7.11,8.199 -18.56,12.339 -34.38,12.339 -16.99,0 -30.43,-6.488 -40.31,-19.379 -9.92,-12.808 -14.84,-30.152 -14.84,-52.031 V 438.828 Z" /><path
         id="path38"
         style="fill:#004166;fill-opacity:1;fill-rule:nonzero;stroke:none"
         d="m 3123.28,438.98 c -11.99,-1.75 -20.74,-2.652 -26.25,-2.652 -15.31,0 -26.17,3.363 -32.5,10.152 -6.37,6.758 -9.53,18.442 -9.53,35 v 137.661 h -28.91 v 28.75 H 3055 v 58.589 h 35.16 v -58.589 h 33.12 v -28.75 h -33.12 V 481.48 c 0,-4.679 1.87,-8.429 5.62,-11.25 3.75,-2.73 8.75,-4.058 15,-4.058 h 12.5 z" /><path
         id="path40"
         style="fill:#004166;fill-opacity:1;fill-rule:nonzero;stroke:none"
         d="m 3242.5,433.199 c -29.49,0 -52.73,9.379 -69.69,28.129 -16.87,18.75 -25.31,44.613 -25.31,77.652 0,35.2 8.91,63.168 26.72,83.911 17.89,20.82 41.95,31.25 72.19,31.25 27.38,0 49.45,-10.161 66.25,-30.469 16.75,-20.313 25.15,-47.031 25.15,-80.152 l -0.31,-12.5 h -152.81 c 1.44,-20.86 6.25,-36.719 14.37,-47.661 9.89,-13.238 25.51,-19.839 46.88,-19.839 13.32,0 25,3.75 35,11.25 10.08,7.57 16.25,17.218 18.44,28.902 h 34.84 c -5.24,-22.934 -15.63,-40.434 -31.25,-52.5 -15.63,-11.992 -35.78,-17.973 -60.47,-17.973 z m 58.59,126.102 c -1.05,19.449 -5.86,34.57 -14.37,45.308 -9.49,11.95 -23.44,17.969 -41.88,17.969 -18.43,0 -33.2,-6.879 -44.22,-20.629 -8.74,-10.859 -14.06,-25.07 -15.93,-42.648 z" /><path
         id="path42"
         style="fill:#004166;fill-opacity:1;fill-rule:nonzero;stroke:none"
         d="m 3385,438.828 v 209.063 h 33.28 v -35.782 c 3.01,5.621 6.25,10.661 9.69,15.161 13.2,17.89 29.53,26.871 48.91,26.871 3.32,0 6.64,-0.621 10,-1.871 v -35.942 l -7.19,0.313 c -19.07,0 -33.75,-5.743 -44.07,-17.192 -10.31,-11.359 -15.46,-27.609 -15.46,-48.75 V 438.828 Z" /><path
         id="path44"
         style="fill:#96bc33;fill-opacity:1;fill-rule:nonzero;stroke:none"
         d="m 1044.84,344.301 h 153.44 l -2.66,-36.102 h -6.87 v 16.879 c 0,5.703 -2.46,8.594 -7.34,8.594 h -47.35 V 176.02 c 0,-3.442 1.76,-6.059 5.32,-7.821 3.51,-1.679 7.96,-2.5 13.28,-2.5 2.89,0 5.07,0.16 6.56,0.473 v -7.344 h -75.16 v 7.344 c 1.02,-0.231 2.85,-0.313 5.47,-0.313 4.88,0 9.26,0.782 13.13,2.34 3.94,1.571 5.93,3.949 5.93,7.192 v 158.281 h -47.34 c -1.87,0 -3.59,-0.781 -5.16,-2.344 -1.48,-1.488 -2.18,-3.398 -2.18,-5.777 v -17.352 h -6.57 z m 201.57,-58.91 c 13.43,-1.68 24.37,-7.301 32.81,-16.871 7.81,-8.75 13.36,-20.399 16.72,-34.848 l -32.97,-11.723 h -59.06 c 0,-11.988 3.04,-23.039 9.21,-33.121 7.08,-11.68 15.86,-17.969 26.41,-18.906 1.25,-0.121 2.54,-0.152 3.91,-0.152 1.01,0 2.18,0 3.44,0 7.07,0 13.51,0.781 19.37,2.339 5.82,1.641 12.54,4.301 20.16,7.969 l 1.56,-2.187 c -2.5,-7.5 -7.58,-13.243 -15.16,-17.192 -6.79,-3.429 -14.84,-5.148 -24.22,-5.148 -20.23,0 -36.56,5.07 -49.06,15.308 -14.3,11.563 -21.41,28.2 -21.41,50 0,16.871 5.63,31.911 16.88,45.161 11.33,13.199 25.66,19.839 42.97,19.839 0.82,0 1.95,-0.078 3.44,-0.16 1.44,-0.109 3.12,-0.23 5,-0.308 z m -41.88,-53.121 h 65.78 c 0.2,1.64 0.31,2.851 0.31,3.589 0,9.571 -2.46,18.36 -7.34,26.411 -5.62,9.058 -12.62,13.589 -20.94,13.589 -14.18,0 -24.33,-4.488 -30.46,-13.437 -4.93,-7.113 -7.35,-17.152 -7.35,-30.152 z" /><path
         id="path46"
         style="fill:#96bc33;fill-opacity:1;fill-rule:nonzero;stroke:none"
         d="m 1404.88,279.922 c -1.05,-4.801 -1.79,-9.652 -2.18,-14.531 -0.32,-4.922 -0.47,-10.161 -0.47,-15.782 -1.49,-0.55 -3.05,-0.55 -4.69,0 -2.5,3.121 -4.61,5.391 -6.25,6.871 -3.75,3.211 -8.09,4.848 -12.97,4.848 -4.18,0 -8.71,-1.949 -13.59,-5.777 -4.81,-3.75 -7.97,-7.973 -9.53,-12.66 V 172.73 c 0,-2.929 2.38,-4.96 7.18,-6.089 4.77,-1.051 9.85,-1.563 15.16,-1.563 1.95,0 3.12,0 3.44,0 0.19,0 0.39,0 0.62,0 v -6.25 h -71.56 v 6.25 c 4.88,0 8.48,0.082 10.78,0.313 7.27,0.82 10.94,3.05 10.94,6.718 v 90.621 c 0,1.45 -1.37,2.43 -4.06,2.969 -2.74,0.512 -5.79,0.781 -9.22,0.781 -2,0 -3.91,0 -5.78,0 -0.55,0 -1.33,-0.07 -2.35,-0.152 l -0.31,6.723 c 13.75,1.64 28.05,5.39 42.97,11.25 l 2.19,-2.821 v -26.871 c 4.37,6.641 8.04,11.641 11.09,15 9.57,9.879 19.57,14.84 30,14.84 3.44,0 6.29,-1.519 8.59,-4.527 z" /><path
         id="path48"
         style="fill:#96bc33;fill-opacity:1;fill-rule:nonzero;stroke:none"
         d="m 1535.74,165.078 v -6.25 h -39.53 v 22.344 c -7.81,-7.301 -14.18,-12.582 -19.06,-15.781 -7.93,-5.313 -15.43,-7.969 -22.5,-7.969 -10.24,0 -18.56,2.269 -25,6.879 -7.5,5.078 -11.25,12.578 -11.25,22.5 0,12.379 4.14,22.258 12.5,29.679 6.76,6.02 16.64,10.668 29.69,13.911 7.26,1.757 19.14,3.75 35.62,5.937 v 15 c 0,3.942 -3.2,8.203 -9.53,12.813 -7.19,5.199 -14.92,7.808 -23.13,7.808 -7.81,0 -13.98,-2.179 -18.43,-6.558 -3.87,-3.551 -6.8,-8.981 -8.75,-16.25 l -7.66,1.558 1.09,15.781 c 6.25,4.071 11.25,7.071 15,9.071 11.76,6.129 21.65,9.219 29.69,9.219 11.25,0 21.25,-3.09 30,-9.219 8.83,-6.063 13.28,-12.43 13.28,-19.071 v -78.589 c 0,-3.871 1.1,-6.801 3.28,-8.75 2.82,-2.731 7.7,-4.063 14.69,-4.063 z m -42.97,22.031 c 0.63,1.129 1.33,2.34 2.19,3.59 0.82,1.25 1.25,2.699 1.25,4.379 v 31.25 c -13.55,0 -25.55,-2.656 -35.94,-7.969 -12.5,-6.371 -18.75,-15.238 -18.75,-26.558 0,-5.121 2.07,-9.77 6.25,-13.91 4.14,-4.18 8.91,-6.25 14.22,-6.25 5.39,0 10.67,1.328 15.78,4.058 5.08,2.699 10.08,6.492 15,11.41 z" /><path
         id="path50"
         style="fill:#96bc33;fill-opacity:1;fill-rule:nonzero;stroke:none"
         d="m 1645.08,284.77 c 14.45,0 26.64,-5.161 36.56,-15.469 9.88,-10.242 14.84,-22.192 14.84,-35.942 0,-19.808 -7.65,-37.461 -22.96,-52.968 -15.32,-15.43 -33.05,-23.121 -53.13,-23.121 -4.3,0 -8.2,0.429 -11.72,1.25 -3.44,0.699 -7.73,2.07 -12.81,4.058 v -58.437 c 0,-4.6918 2.42,-8.0121 7.34,-10.0004 3.64,-1.4414 8.79,-2.1914 15.47,-2.1914 v -6.8711 h -67.65 v 6.8711 c 5,0 8.78,0.2813 11.4,0.7813 7.58,1.6797 11.41,5.4687 11.41,11.4105 v 155 c 0,2.89 -1.84,4.879 -5.47,5.937 -3.67,1.133 -7.74,1.723 -12.19,1.723 -1.37,0 -2.65,0 -3.9,0 -0.32,0 -0.75,-0.121 -1.25,-0.321 v 7.192 c 8.32,1.019 16.13,2.379 23.43,4.058 7.39,1.758 14.53,3.95 21.41,6.571 v -26.25 c 5.82,6.008 10.62,10.5 14.37,13.429 11.76,8.829 23.36,13.29 34.85,13.29 z m 29.69,-63.442 c 0,11.953 -4.22,22.652 -12.66,32.031 -8.44,9.45 -18.56,14.219 -30.31,14.219 -7.11,0 -14.85,-3.047 -23.28,-9.058 -8.44,-6.059 -12.66,-11.098 -12.66,-15.161 V 186.02 c 0,-2.43 4.37,-5.75 13.12,-10 8.83,-4.18 16.45,-6.25 22.82,-6.25 11.32,0 21.32,5.23 30,15.781 8.63,10.621 12.97,22.539 12.97,35.777 z" /><path
         id="path52"
         style="fill:#96bc33;fill-opacity:1;fill-rule:nonzero;stroke:none"
         d="m 1747.7,342.422 c 3.94,0 7.26,-1.481 10,-4.371 2.81,-2.93 4.21,-6.531 4.21,-10.781 0,-4.071 -1.48,-7.469 -4.37,-10.161 -2.93,-2.73 -6.49,-4.058 -10.63,-4.058 -4.18,0 -7.61,1.437 -10.31,4.371 -2.73,2.887 -4.06,6.558 -4.06,10.937 0,3.942 1.41,7.262 4.22,10 2.89,2.692 6.56,4.063 10.94,4.063 z m 32.34,-177.344 v -6.25 h -62.81 v 6.25 c 1.25,0 2.22,0 2.97,0 4.37,0 8.28,0.391 11.71,1.25 3.44,0.942 5.16,2.852 5.16,5.781 v 82.969 c 0,4.141 -1.41,7.113 -4.22,8.902 -2.81,1.879 -6.56,2.821 -11.25,2.821 -1.25,0 -3.2,-0.16 -5.78,-0.473 v 6.723 c 7.27,1.129 14.53,2.57 21.72,4.371 7.26,1.758 14.37,4.058 21.25,6.879 l 2.19,-2.821 V 171.949 c 0,-3.359 2.26,-5.429 6.87,-6.25 1.76,-0.429 5.82,-0.621 12.19,-0.621 z" /><path
         id="path54"
         style="fill:#96bc33;fill-opacity:1;fill-rule:nonzero;stroke:none"
         d="m 1911.33,165.078 v -6.25 h -39.53 v 22.344 c -7.82,-7.301 -14.18,-12.582 -19.07,-15.781 -7.93,-5.313 -15.43,-7.969 -22.5,-7.969 -10.23,0 -18.55,2.269 -25,6.879 -7.5,5.078 -11.25,12.578 -11.25,22.5 0,12.379 4.14,22.258 12.5,29.679 6.76,6.02 16.64,10.668 29.69,13.911 7.27,1.757 19.14,3.75 35.63,5.937 v 15 c 0,3.942 -3.21,8.203 -9.53,12.813 -7.19,5.199 -14.93,7.808 -23.13,7.808 -7.81,0 -13.98,-2.179 -18.44,-6.558 -3.86,-3.551 -6.79,-8.981 -8.75,-16.25 l -7.65,1.558 1.09,15.781 c 6.25,4.071 11.25,7.071 15,9.071 11.76,6.129 21.64,9.219 29.69,9.219 11.25,0 21.25,-3.09 30,-9.219 8.83,-6.063 13.28,-12.43 13.28,-19.071 v -78.589 c 0,-3.871 1.09,-6.801 3.28,-8.75 2.81,-2.731 7.7,-4.063 14.69,-4.063 z m -42.97,22.031 c 0.62,1.129 1.33,2.34 2.19,3.59 0.82,1.25 1.25,2.699 1.25,4.379 v 31.25 c -13.56,0 -25.55,-2.656 -35.94,-7.969 -12.5,-6.371 -18.75,-15.238 -18.75,-26.558 0,-5.121 2.07,-9.77 6.25,-13.91 4.14,-4.18 8.91,-6.25 14.22,-6.25 5.39,0 10.66,1.328 15.78,4.058 5.08,2.699 10.08,6.492 15,11.41 z" /><path
         id="path56"
         style="fill:#96bc33;fill-opacity:1;fill-rule:nonzero;stroke:none"
         d="m 2019.57,276.328 -2.97,-27.656 h -5.94 c 0.08,0.816 0.16,2.066 0.16,3.75 0,7.269 -3.09,13.129 -9.22,17.5 -6.17,4.457 -13.28,6.719 -21.4,6.719 -7.11,0 -13.4,-1.993 -18.91,-5.942 -5.43,-3.859 -8.13,-9.058 -8.13,-15.621 0,-3.238 1.02,-6.488 3.13,-9.687 2.07,-3.121 4.41,-5.082 7.03,-5.782 l 44.53,-12.187 c 6.33,-1.684 11.33,-5.313 15,-10.942 3.75,-5.621 5.63,-11.71 5.63,-18.281 0,-12.609 -4.81,-22.929 -14.38,-30.929 -9.61,-8.051 -23.08,-12.04 -40.47,-12.04 -13.86,0 -27.18,2.11 -40,6.25 l 4.53,36.25 h 6.1 c 0,-6.171 0.23,-10.929 0.78,-14.371 0.94,-3.871 1.56,-6.679 1.87,-8.437 11.02,-6.871 22.11,-10.313 33.29,-10.313 9.37,0 16.56,2.192 21.56,6.563 5,4.449 7.5,10.508 7.5,18.129 0,4.57 -1.17,8.469 -3.44,11.719 -2.3,3.199 -5.9,5.46 -10.78,6.71 l -41.88,11.25 c -5.93,1.571 -10.58,5.079 -13.9,10.629 -3.24,5.621 -4.85,11.641 -4.85,18.121 0,11.25 5,20.36 15,27.348 10.08,6.953 21.33,10.473 33.75,10.473 11.57,0 21.02,-1.531 28.44,-4.531 2.38,-0.942 5.04,-2.5 7.97,-4.692 z" /><path
         id="path58"
         style="fill:#96bc33;fill-opacity:1;fill-rule:nonzero;stroke:none"
         d="m 2372.81,166.172 v -7.344 h -72.03 v 7.344 c 0.94,-0.231 2.27,-0.313 4.06,-0.313 4.69,0 8.95,1.25 12.82,3.75 3.94,2.582 5.93,6.25 5.93,10.942 V 316.02 l -74.53,-159.379 h -5.15 L 2169.38,312.73 V 178.199 c 0,-4.918 3,-8.277 9.06,-10.148 4.14,-1.25 9.45,-1.879 15.94,-1.879 v -7.344 h -62.5 v 7.344 c 2.18,-0.313 3.9,-0.473 5.15,-0.473 5.2,0 9.73,1.141 13.59,3.442 3.95,2.379 5.94,5.308 5.94,8.75 v 146.558 c 0,4.77 -3.9,8.211 -11.72,10.321 -3.55,1.128 -7.61,1.949 -12.18,2.5 v 7.031 h 48.9 l 71.41,-146.571 70.15,146.571 h 49.69 v -7.031 c -12.11,-1.059 -18.51,-1.801 -19.22,-2.192 -3.86,-1.488 -5.78,-4.058 -5.78,-7.808 V 181.172 c 0,-5.621 2.81,-9.762 8.44,-12.344 4.14,-1.797 9.69,-2.656 16.56,-2.656 z" /><path
         id="path60"
         style="fill:#96bc33;fill-opacity:1;fill-rule:nonzero;stroke:none"
         d="m 2459.49,285.391 c 13.44,-1.68 24.38,-7.301 32.81,-16.871 7.82,-8.75 13.36,-20.399 16.72,-34.848 l -32.97,-11.723 h -59.06 c 0,-11.988 3.05,-23.039 9.22,-33.121 7.07,-11.68 15.86,-17.969 26.41,-18.906 1.25,-0.121 2.54,-0.152 3.9,-0.152 1.02,0 2.19,0 3.44,0 7.07,0 13.52,0.781 19.38,2.339 5.82,1.641 12.54,4.301 20.15,7.969 l 1.56,-2.187 c -2.5,-7.5 -7.57,-13.243 -15.15,-17.192 -6.8,-3.429 -14.85,-5.148 -24.22,-5.148 -20.23,0 -36.56,5.07 -49.06,15.308 -14.3,11.563 -21.41,28.2 -21.41,50 0,16.871 5.63,31.911 16.88,45.161 11.32,13.199 25.66,19.839 42.96,19.839 0.83,0 1.96,-0.078 3.44,-0.16 1.45,-0.109 3.13,-0.23 5,-0.308 z m -41.87,-53.121 h 65.78 c 0.19,1.64 0.31,2.851 0.31,3.589 0,9.571 -2.46,18.36 -7.34,26.411 -5.63,9.058 -12.62,13.589 -20.94,13.589 -14.18,0 -24.34,-4.488 -30.47,-13.437 -4.92,-7.113 -7.34,-17.152 -7.34,-30.152 z m 62.97,94.371 -45.16,-27.969 h -10.16 l 42.5,41.879 c 1.64,1.64 3.64,2.5 5.94,2.5 2.58,0 4.92,-1.063 7.03,-3.129 2.19,-1.992 3.28,-4.332 3.28,-7.031 0,-2.301 -1.17,-4.371 -3.43,-6.25 z" /><path
         id="path62"
         style="fill:#96bc33;fill-opacity:1;fill-rule:nonzero;stroke:none"
         d="m 2673.05,166.641 v -7.813 h -44.69 v 23.442 c -6.48,-7.5 -13.87,-13.559 -22.19,-18.129 -8.24,-4.61 -16.79,-6.871 -25.62,-6.871 -16.37,0 -28.99,5.39 -37.82,16.25 -8.86,10.82 -13.28,26.25 -13.28,46.25 0,19.57 6.88,35.46 20.63,47.652 12.89,11.328 28.47,17.027 46.72,17.027 5.82,0 11.4,-0.699 16.72,-2.027 5.39,-1.371 10.35,-3.551 14.84,-6.563 v 52.5 c 0,3.75 -3.59,6.25 -10.78,7.5 -2.42,0.391 -6.06,0.7 -10.94,0.942 v 7.027 c 8.13,1.25 15.55,2.582 22.34,4.063 2.5,0.507 9.93,2.109 22.35,4.839 V 179.449 c 0,-5 2.07,-8.59 6.25,-10.777 2.81,-1.481 6.48,-2.192 11.09,-2.192 0.94,0 1.92,0 2.97,0 0.39,0 0.86,0.04 1.41,0.161 z m -79.53,6.879 c 9.68,0 17.89,3.468 24.68,10.46 6.76,6.961 10.16,15.239 10.16,24.848 v 43.594 c 0,3.437 -4.53,7.699 -13.59,12.808 -9.07,5.2 -17.19,7.821 -24.38,7.821 -11.99,-1.25 -21.64,-6.68 -28.91,-16.25 -7.3,-9.5 -10.93,-20.59 -10.93,-33.281 0,-13.559 3.75,-25.079 11.25,-34.54 8.12,-10.308 18.67,-15.46 31.72,-15.46 z" /><path
         id="path64"
         style="fill:#96bc33;fill-opacity:1;fill-rule:nonzero;stroke:none"
         d="m 2719.88,342.422 c 3.95,0 7.27,-1.481 10,-4.371 2.82,-2.93 4.22,-6.531 4.22,-10.781 0,-4.071 -1.48,-7.469 -4.37,-10.161 -2.93,-2.73 -6.49,-4.058 -10.63,-4.058 -4.18,0 -7.62,1.437 -10.31,4.371 -2.74,2.887 -4.06,6.558 -4.06,10.937 0,3.942 1.4,7.262 4.22,10 2.89,2.692 6.56,4.063 10.93,4.063 z m 32.35,-177.344 v -6.25 h -62.82 v 6.25 c 1.25,0 2.23,0 2.97,0 4.38,0 8.28,0.391 11.72,1.25 3.44,0.942 5.16,2.852 5.16,5.781 v 82.969 c 0,4.141 -1.41,7.113 -4.22,8.902 -2.81,1.879 -6.56,2.821 -11.25,2.821 -1.25,0 -3.2,-0.16 -5.78,-0.473 v 6.723 c 7.26,1.129 14.53,2.57 21.72,4.371 7.26,1.758 14.37,4.058 21.25,6.879 l 2.18,-2.821 V 171.949 c 0,-3.359 2.27,-5.429 6.88,-6.25 1.76,-0.429 5.82,-0.621 12.19,-0.621 z" /><path
         id="path66"
         style="fill:#96bc33;fill-opacity:1;fill-rule:nonzero;stroke:none"
         d="m 2867.89,176.801 2.19,-4.692 c -1.99,-6.488 -7.89,-11.058 -17.66,-13.75 -6.68,-1.879 -14.76,-2.808 -24.22,-2.808 -17.42,0 -31.95,5.777 -43.59,17.34 -11.56,11.64 -17.34,26.019 -17.34,43.129 0,22.07 7.22,39.449 21.71,52.179 13.13,11.449 29.73,17.192 49.85,17.192 5.39,0 10.66,-0.7 15.78,-2.032 5.08,-1.25 10.23,-3.05 15.47,-5.308 l -3.28,-34.071 h -7.35 l -2.18,16.879 c -7.93,8.832 -17.04,13.282 -27.35,13.282 -12.62,0 -22.3,-4.61 -29.06,-13.75 -6.8,-9.18 -10.16,-20.551 -10.16,-34.063 0,-14.687 4.57,-27.808 13.75,-39.379 9.14,-11.48 20.51,-17.179 34.07,-17.179 10.93,0 20.7,2.339 29.37,7.031 z" /><path
         id="path68"
         style="fill:#96bc33;fill-opacity:1;fill-rule:nonzero;stroke:none"
         d="m 3004.14,165.078 v -6.25 h -39.53 v 22.344 c -7.81,-7.301 -14.18,-12.582 -19.06,-15.781 -7.93,-5.313 -15.43,-7.969 -22.5,-7.969 -10.24,0 -18.56,2.269 -25,6.879 -7.5,5.078 -11.25,12.578 -11.25,22.5 0,12.379 4.14,22.258 12.5,29.679 6.75,6.02 16.64,10.668 29.68,13.911 7.27,1.757 19.14,3.75 35.63,5.937 v 15 c 0,3.942 -3.2,8.203 -9.53,12.813 -7.19,5.199 -14.92,7.808 -23.13,7.808 -7.81,0 -13.98,-2.179 -18.43,-6.558 -3.87,-3.551 -6.8,-8.981 -8.75,-16.25 l -7.66,1.558 1.09,15.781 c 6.25,4.071 11.25,7.071 15,9.071 11.76,6.129 21.64,9.219 29.69,9.219 11.25,0 21.25,-3.09 30,-9.219 8.83,-6.063 13.28,-12.43 13.28,-19.071 v -78.589 c 0,-3.871 1.1,-6.801 3.28,-8.75 2.82,-2.731 7.7,-4.063 14.69,-4.063 z m -42.97,22.031 c 0.63,1.129 1.33,2.34 2.19,3.59 0.82,1.25 1.25,2.699 1.25,4.379 v 31.25 c -13.56,0 -25.55,-2.656 -35.94,-7.969 -12.5,-6.371 -18.75,-15.238 -18.75,-26.558 0,-5.121 2.07,-9.77 6.25,-13.91 4.14,-4.18 8.91,-6.25 14.22,-6.25 5.39,0 10.66,1.328 15.78,4.058 5.08,2.699 10.08,6.492 15,11.41 z" /><path
         id="path70"
         style="fill:#96bc33;fill-opacity:1;fill-rule:nonzero;stroke:none"
         d="m 3112.34,276.328 -2.96,-27.656 h -5.94 c 0.08,0.816 0.15,2.066 0.15,3.75 0,7.269 -3.08,13.129 -9.21,17.5 -6.18,4.457 -13.29,6.719 -21.41,6.719 -7.11,0 -13.4,-1.993 -18.91,-5.942 -5.43,-3.859 -8.12,-9.058 -8.12,-15.621 0,-3.238 1.01,-6.488 3.12,-9.687 2.07,-3.121 4.42,-5.082 7.03,-5.782 l 44.53,-12.187 c 6.33,-1.684 11.33,-5.313 15,-10.942 3.76,-5.621 5.63,-11.71 5.63,-18.281 0,-12.609 -4.8,-22.929 -14.37,-30.929 -9.61,-8.051 -23.09,-12.04 -40.47,-12.04 -13.87,0 -27.19,2.11 -40,6.25 l 4.53,36.25 h 6.09 c 0,-6.171 0.24,-10.929 0.78,-14.371 0.94,-3.871 1.57,-6.679 1.88,-8.437 11.01,-6.871 22.11,-10.313 33.28,-10.313 9.37,0 16.56,2.192 21.56,6.563 5,4.449 7.5,10.508 7.5,18.129 0,4.57 -1.17,8.469 -3.44,11.719 -2.3,3.199 -5.89,5.46 -10.78,6.71 l -41.87,11.25 c -5.94,1.571 -10.59,5.079 -13.91,10.629 -3.24,5.621 -4.84,11.641 -4.84,18.121 0,11.25 5,20.36 15,27.348 10.08,6.953 21.33,10.473 33.75,10.473 11.56,0 21.01,-1.531 28.44,-4.531 2.38,-0.942 5.03,-2.5 7.96,-4.692 z" /><path
         id="path72"
         style="fill:#96bc33;fill-opacity:1;fill-rule:nonzero;stroke:none"
         d="m 3422.15,158.828 h -69.06 v 7.344 c 2.81,0 5.82,0.156 9.06,0.469 3.32,0.39 6.95,1.48 10.94,3.281 0.7,1.328 1.09,2.887 1.09,4.687 0,0.7 -0.16,1.442 -0.47,2.192 l -17.5,44.371 h -76.41 l -15.46,-37.344 c -1.06,-3.238 -1.57,-6.207 -1.57,-8.906 1.96,-4.063 4.69,-6.563 8.13,-7.5 3.44,-0.863 8.12,-1.25 14.06,-1.25 v -7.344 h -60.94 v 7.344 c 5.08,0 8.79,0.238 11.1,0.777 2.26,0.512 4.57,2.231 6.87,5.16 l 78.6,174.692 h 9.06 l 71.25,-167.352 c 3.83,-8.859 10.94,-13.277 21.25,-13.277 z m -70.78,72.973 -32.97,78.59 -33.44,-78.59 z" /><path
         id="path74"
         style="fill:#96bc33;fill-opacity:1;fill-rule:nonzero;stroke:none"
         d="m 3542.97,282.578 v -5.629 c -4.92,0 -8.4,-0.898 -10.47,-2.648 -2.11,-1.68 -3.87,-4.301 -5.31,-7.821 l -49.53,-108.75 h -14.38 l -45.16,107.969 c -2.42,5.321 -5.11,8.68 -8.12,10.16 -1.68,0.7 -4.61,1.09 -8.75,1.09 v 6.25 h 61.41 v -6.25 c -0.86,0.082 -2.27,0.16 -4.22,0.16 -4.38,0 -7.97,-0.738 -10.78,-2.187 -2.74,-1.481 -4.07,-3.981 -4.07,-7.5 0,-1.992 0.55,-4.371 1.72,-7.192 l 32.35,-77.96 32.34,79.058 c 0.94,2.383 1.41,4.41 1.41,6.094 0,3.75 -1.72,6.25 -5.16,7.5 -3.44,1.328 -7.81,2.027 -13.13,2.027 v 5.629 z" /><path
         id="path76"
         style="fill:#96bc33;fill-opacity:1;fill-rule:nonzero;stroke:none"
         d="m 3655.16,165.078 v -6.25 h -39.54 v 22.344 c -7.81,-7.301 -14.17,-12.582 -19.06,-15.781 -7.93,-5.313 -15.43,-7.969 -22.5,-7.969 -10.23,0 -18.55,2.269 -25,6.879 -7.5,5.078 -11.25,12.578 -11.25,22.5 0,12.379 4.14,22.258 12.5,29.679 6.76,6.02 16.64,10.668 29.69,13.911 7.27,1.757 19.14,3.75 35.62,5.937 v 15 c 0,3.942 -3.2,8.203 -9.53,12.813 -7.18,5.199 -14.92,7.808 -23.12,7.808 -7.81,0 -13.99,-2.179 -18.44,-6.558 -3.87,-3.551 -6.8,-8.981 -8.75,-16.25 l -7.66,1.558 1.1,15.781 c 6.25,4.071 11.25,7.071 15,9.071 11.76,6.129 21.64,9.219 29.69,9.219 11.25,0 21.25,-3.09 30,-9.219 8.82,-6.063 13.28,-12.43 13.28,-19.071 v -78.589 c 0,-3.871 1.09,-6.801 3.28,-8.75 2.81,-2.731 7.69,-4.063 14.69,-4.063 z m -42.97,22.031 c 0.62,1.129 1.33,2.34 2.19,3.59 0.82,1.25 1.24,2.699 1.24,4.379 v 31.25 c -13.55,0 -25.54,-2.656 -35.93,-7.969 -12.5,-6.371 -18.75,-15.238 -18.75,-26.558 0,-5.121 2.07,-9.77 6.25,-13.91 4.14,-4.18 8.9,-6.25 14.22,-6.25 5.39,0 10.66,1.328 15.78,4.058 5.08,2.699 10.08,6.492 15,11.41 z" /><path
         id="path78"
         style="fill:#96bc33;fill-opacity:1;fill-rule:nonzero;stroke:none"
         d="m 3823.2,165.078 v -6.25 h -44.06 v 85.152 c 0,7.27 -3.09,13.211 -9.22,17.821 -6.17,4.57 -13.24,6.871 -21.25,6.871 -8.12,0 -15.62,-2.461 -22.5,-7.344 -6.79,-4.918 -10.15,-11.25 -10.15,-19.058 v -66.879 c 0,-4.493 1.79,-7.461 5.46,-8.911 2.19,-0.929 6.1,-1.402 11.72,-1.402 1.96,0 3.52,0 4.69,0 v -6.25 h -66.09 v 6.25 c 4.88,0.192 8.47,0.543 10.78,1.094 7.26,1.637 10.94,4.566 10.94,8.75 v 84.219 c 0,2.808 -1.37,4.879 -4.07,6.25 -2.73,1.328 -6.09,2.031 -10.15,2.031 -2.93,0 -5.63,-0.313 -8.13,-0.942 v 7.192 c 14.69,2.187 28.91,5.707 42.66,10.629 l 2.19,-2.821 v -20.621 c 5.5,5.391 10,9.371 13.43,11.871 10.51,8.008 20,12.04 28.44,12.04 11.64,0 21.64,-2.821 30,-8.442 9.38,-6.367 14.06,-14.687 14.06,-25 V 173.52 c 0,-2.739 1.64,-4.809 5,-6.25 3.44,-1.489 8.83,-2.192 16.25,-2.192 z" /><path
         id="path80"
         style="fill:#96bc33;fill-opacity:1;fill-rule:nonzero;stroke:none"
         d="m 3948.16,196.641 h 7.97 l -3.9,-37.813 h -115.78 l -0.32,5.781 86.41,106.871 h -57.34 c -3.75,0 -6.49,-2.73 -8.13,-8.121 -1.68,-5.308 -2.5,-10.937 -2.5,-16.879 h -6.56 l 3.28,36.719 h 101.56 l -0.62,-10.148 -82.66,-103.602 h 63.59 c 4.77,0 8.44,3.051 10.94,9.223 1.64,3.949 3.01,9.918 4.06,17.969 z" /><path
         id="path82"
         style="fill:#96bc33;fill-opacity:1;fill-rule:nonzero;stroke:none"
         d="m 4091.05,165.078 v -6.25 h -39.53 v 22.344 c -7.81,-7.301 -14.18,-12.582 -19.06,-15.781 -7.93,-5.313 -15.43,-7.969 -22.5,-7.969 -10.23,0 -18.55,2.269 -25,6.879 -7.5,5.078 -11.25,12.578 -11.25,22.5 0,12.379 4.14,22.258 12.5,29.679 6.76,6.02 16.64,10.668 29.69,13.911 7.26,1.757 19.14,3.75 35.62,5.937 v 15 c 0,3.942 -3.2,8.203 -9.53,12.813 -7.19,5.199 -14.92,7.808 -23.12,7.808 -7.82,0 -13.99,-2.179 -18.44,-6.558 -3.87,-3.551 -6.8,-8.981 -8.75,-16.25 l -7.66,1.558 1.1,15.781 c 6.25,4.071 11.25,7.071 15,9.071 11.76,6.129 21.64,9.219 29.68,9.219 11.25,0 21.25,-3.09 30,-9.219 8.83,-6.063 13.29,-12.43 13.29,-19.071 v -78.589 c 0,-3.871 1.09,-6.801 3.28,-8.75 2.81,-2.731 7.69,-4.063 14.68,-4.063 z m -42.96,22.031 c 0.62,1.129 1.32,2.34 2.18,3.59 0.82,1.25 1.25,2.699 1.25,4.379 v 31.25 c -13.55,0 -25.54,-2.656 -35.93,-7.969 -12.5,-6.371 -18.75,-15.238 -18.75,-26.558 0,-5.121 2.07,-9.77 6.25,-13.91 4.14,-4.18 8.9,-6.25 14.21,-6.25 5.4,0 10.67,1.328 15.79,4.058 5.07,2.699 10.07,6.492 15,11.41 z" /><path
         id="path84"
         style="fill:#96bc33;fill-opacity:1;fill-rule:nonzero;stroke:none"
         d="m 4256.17,166.641 v -7.813 h -44.69 v 23.442 c -6.48,-7.5 -13.86,-13.559 -22.18,-18.129 -8.25,-4.61 -16.8,-6.871 -25.63,-6.871 -16.37,0 -28.98,5.39 -37.81,16.25 -8.87,10.82 -13.28,26.25 -13.28,46.25 0,19.57 6.87,35.46 20.62,47.652 12.89,11.328 28.48,17.027 46.72,17.027 5.82,0 11.41,-0.699 16.72,-2.027 5.39,-1.371 10.35,-3.551 14.84,-6.563 v 52.5 c 0,3.75 -3.59,6.25 -10.78,7.5 -2.42,0.391 -6.05,0.7 -10.93,0.942 v 7.027 c 8.12,1.25 15.54,2.582 22.34,4.063 2.5,0.507 9.92,2.109 22.34,4.839 V 179.449 c 0,-5 2.07,-8.59 6.25,-10.777 2.82,-1.481 6.49,-2.192 11.1,-2.192 0.93,0 1.91,0 2.97,0 0.39,0 0.85,0.04 1.4,0.161 z m -79.53,6.879 c 9.69,0 17.89,3.468 24.69,10.46 6.76,6.961 10.15,15.239 10.15,24.848 v 43.594 c 0,3.437 -4.53,7.699 -13.59,12.808 -9.06,5.2 -17.19,7.821 -24.37,7.821 -12,-1.25 -21.64,-6.68 -28.91,-16.25 -7.31,-9.5 -10.94,-20.59 -10.94,-33.281 0,-13.559 3.75,-25.079 11.25,-34.54 8.13,-10.308 18.67,-15.46 31.72,-15.46 z" /><path
         id="path86"
         style="fill:#96bc33;fill-opacity:1;fill-rule:nonzero;stroke:none"
         d="m 4391.76,165.078 v -6.25 h -39.53 v 22.344 c -7.82,-7.301 -14.18,-12.582 -19.07,-15.781 -7.93,-5.313 -15.43,-7.969 -22.5,-7.969 -10.23,0 -18.55,2.269 -25,6.879 -7.5,5.078 -11.25,12.578 -11.25,22.5 0,12.379 4.14,22.258 12.5,29.679 6.76,6.02 16.64,10.668 29.69,13.911 7.27,1.757 19.14,3.75 35.63,5.937 v 15 c 0,3.942 -3.21,8.203 -9.53,12.813 -7.19,5.199 -14.93,7.808 -23.13,7.808 -7.81,0 -13.98,-2.179 -18.44,-6.558 -3.86,-3.551 -6.79,-8.981 -8.75,-16.25 l -7.65,1.558 1.09,15.781 c 6.25,4.071 11.25,7.071 15,9.071 11.76,6.129 21.64,9.219 29.69,9.219 11.25,0 21.25,-3.09 30,-9.219 8.83,-6.063 13.28,-12.43 13.28,-19.071 v -78.589 c 0,-3.871 1.09,-6.801 3.28,-8.75 2.81,-2.731 7.7,-4.063 14.69,-4.063 z m -42.97,22.031 c 0.62,1.129 1.33,2.34 2.19,3.59 0.82,1.25 1.25,2.699 1.25,4.379 v 31.25 c -13.56,0 -25.55,-2.656 -35.94,-7.969 -12.5,-6.371 -18.75,-15.238 -18.75,-26.558 0,-5.121 2.07,-9.77 6.25,-13.91 4.14,-4.18 8.91,-6.25 14.22,-6.25 5.39,0 10.66,1.328 15.78,4.058 5.08,2.699 10.08,6.492 15,11.41 z" /><path
         id="path88"
         style="fill:#96bc33;fill-opacity:1;fill-rule:nonzero;stroke:none"
         d="m 4499.96,276.328 -2.97,-27.656 h -5.94 c 0.08,0.816 0.16,2.066 0.16,3.75 0,7.269 -3.09,13.129 -9.22,17.5 -6.17,4.457 -13.28,6.719 -21.4,6.719 -7.11,0 -13.4,-1.993 -18.91,-5.942 -5.43,-3.859 -8.13,-9.058 -8.13,-15.621 0,-3.238 1.02,-6.488 3.13,-9.687 2.07,-3.121 4.41,-5.082 7.03,-5.782 l 44.53,-12.187 c 6.33,-1.684 11.33,-5.313 15,-10.942 3.75,-5.621 5.63,-11.71 5.63,-18.281 0,-12.609 -4.81,-22.929 -14.38,-30.929 -9.61,-8.051 -23.08,-12.04 -40.47,-12.04 -13.86,0 -27.18,2.11 -40,6.25 l 4.53,36.25 h 6.1 c 0,-6.171 0.23,-10.929 0.78,-14.371 0.94,-3.871 1.56,-6.679 1.87,-8.437 11.02,-6.871 22.11,-10.313 33.29,-10.313 9.37,0 16.56,2.192 21.56,6.563 5,4.449 7.5,10.508 7.5,18.129 0,4.57 -1.17,8.469 -3.44,11.719 -2.3,3.199 -5.9,5.46 -10.78,6.71 l -41.88,11.25 c -5.93,1.571 -10.58,5.079 -13.9,10.629 -3.24,5.621 -4.85,11.641 -4.85,18.121 0,11.25 5,20.36 15,27.348 10.08,6.953 21.33,10.473 33.75,10.473 11.57,0 21.02,-1.531 28.44,-4.531 2.39,-0.942 5.04,-2.5 7.97,-4.692 z" /></g></g></svg>